<svg xmlns="http://www.w3.org/2000/svg" viewBox="0 0 523.8 667"><defs><style>.cls-1{fill:#d3d3e5;}.cls-2{fill:#fde245;}.cls-3{fill:#ff7edd;}.cls-4{fill:none;stroke:#000;stroke-linecap:round;stroke-miterlimit:10;stroke-width:14px;}.cls-5{fill:#fff;}</style></defs><title>Fichier 6</title><g id="Calque_2" data-name="Calque 2"><g id="Calque_2-2" data-name="Calque 2"><path class="cls-1" d="M149.2,336s-185,57-143,151,186-39,193-64S149.2,336,149.2,336Z"/><path class="cls-1" d="M374.6,336s185,57,143,151-186-39-193-64S374.6,336,374.6,336Z"/><rect class="cls-2" x="106.2" y="116" width="318" height="551" rx="159" ry="159"/><path d="M106.2,377.5s132,87.5,318,0V426s-158,91-318,0Z"/><path d="M106.2,461.5s132,87.5,318,0V510s-158,91-318,0Z"/><circle cx="198.7" cy="253.5" r="25.5"/><circle cx="94.7" cy="25.5" r="25.5"/><circle cx="415.7" cy="25.5" r="25.5"/><circle cx="323.7" cy="253.5" r="25.5"/><circle class="cls-3" cx="149.2" cy="297" r="14"/><circle class="cls-3" cx="363.2" cy="297" r="14"/><path class="cls-4" d="M191.2,153s9-123-91-128"/><path class="cls-4" d="M324.41,153s-9-123,91-128"/><path class="cls-4" d="M229.2,316s5,24,34,24c28,0,32-24,32-24"/><path class="cls-5" d="M371.32,177.88c7.85,7.26,22.24,23.21,26.73,45.92a7.3,7.3,0,0,1-5.86,8.59l-.29.06a13,13,0,0,1-14.82-8.82c-3.13-9.91-9-24.07-18.89-34.43a8,8,0,0,1,1.91-12.43l.2-.11A9.36,9.36,0,0,1,371.32,177.88Z"/><path class="cls-5" d="M398.2,240s9,1,9,12c0,13-18,8-18-3S398.2,240,398.2,240Z"/><circle class="cls-5" cx="319.7" cy="243.5" r="6.5"/><circle class="cls-5" cx="206.7" cy="243.5" r="6.5"/></g></g></svg>