<svg xmlns="http://www.w3.org/2000/svg" viewBox="0 0 561.9 667"><defs><style>.cls-1{fill:#d3d3e5;}.cls-2{fill:#fde245;}.cls-3{fill:#ff7edd;}.cls-4,.cls-6,.cls-7{fill:none;stroke:#000;stroke-miterlimit:10;}.cls-4,.cls-7{stroke-linecap:round;}.cls-4{stroke-width:14px;}.cls-5{fill:#fff;}.cls-6,.cls-7{stroke-width:12px;}</style></defs><title>Fichier 9</title><g id="Calque_2" data-name="Calque 2"><g id="Calque_2-2" data-name="Calque 2"><path class="cls-1" d="M159.74,323S-38.32,384,6.64,484.66s199.13-41.75,206.62-68.52S159.74,323,159.74,323Z"/><path class="cls-1" d="M402.17,323s198.05,61,153.09,161.66-199.13-41.75-206.62-68.52S402.17,323,402.17,323Z"/><rect class="cls-2" x="120.31" y="116" width="318" height="551" rx="159" ry="159"/><path d="M120.31,377.5s132,87.5,318,0V426s-158,91-318,0Z"/><path d="M120.31,461.5s132,87.5,318,0V510s-158,91-318,0Z"/><circle cx="212.81" cy="253.5" r="25.5"/><circle cx="108.81" cy="25.5" r="25.5"/><circle cx="429.81" cy="25.5" r="25.5"/><circle cx="337.81" cy="253.5" r="25.5"/><circle class="cls-3" cx="163.31" cy="297" r="14"/><circle class="cls-3" cx="377.31" cy="297" r="14"/><path class="cls-4" d="M205.31,153s9-123-91-128"/><path class="cls-4" d="M338.52,153s-9-123,91-128"/><path class="cls-5" d="M385.42,177.88c7.85,7.26,22.24,23.21,26.73,45.92a7.31,7.31,0,0,1-5.85,8.59l-.3.06a13,13,0,0,1-14.82-8.82c-3.13-9.91-9-24.07-18.89-34.43a8,8,0,0,1,1.91-12.43l.2-.11A9.36,9.36,0,0,1,385.42,177.88Z"/><path class="cls-5" d="M412.31,240s9,1,9,12c0,13-18,8-18-3S412.31,240,412.31,240Z"/><circle class="cls-5" cx="333.81" cy="243.5" r="6.5"/><circle class="cls-5" cx="220.81" cy="243.5" r="6.5"/><circle class="cls-6" cx="212.81" cy="252.5" r="50"/><circle class="cls-6" cx="339.81" cy="252.5" r="50"/><path class="cls-6" d="M260.35,237s18.36-6.5,29.91,0"/><path class="cls-7" d="M165.31,233.68s-30.5-16.46-43,7.18"/><path class="cls-7" d="M391.31,232.68s30.5-16.46,43,7.18"/><circle cx="275.31" cy="336" r="27"/><path class="cls-3" d="M275.31,344a14,14,0,0,0-14,14c0,.38,0,.75.05,1.12a27,27,0,0,0,27.89,0c0-.37.06-.74.06-1.12A14,14,0,0,0,275.31,344Z"/></g></g></svg>