<svg xmlns="http://www.w3.org/2000/svg" viewBox="0 0 617.21 744.93"><defs><style>.cls-1{fill:#d3d3e5;}.cls-2{fill:#fde245;}.cls-3{fill:#ff7edd;}.cls-4{fill:none;stroke:#000;stroke-linecap:round;stroke-miterlimit:10;stroke-width:14px;}.cls-5{fill:#fff;}.cls-6{fill:#ffed94;}</style></defs><title>Fichier 10</title><g id="Calque_2" data-name="Calque 2"><g id="Calque_2-2" data-name="Calque 2"><path class="cls-1" d="M180.64,323s-198,61-153.09,161.66,199.13-41.75,206.62-68.52S180.64,323,180.64,323Z"/><path class="cls-1" d="M423.07,323s198.06,61,153.1,161.66S377,442.91,369.55,416.14,423.07,323,423.07,323Z"/><rect class="cls-2" x="147.21" y="116" width="318" height="551" rx="159" ry="159"/><path d="M147.21,377.5s132,87.5,318,0V426s-158,91-318,0Z"/><path d="M147.21,461.5s132,87.5,318,0V510s-158,91-318,0Z"/><circle cx="239.71" cy="253.5" r="25.5"/><circle cx="135.71" cy="25.5" r="25.5"/><circle cx="456.71" cy="25.5" r="25.5"/><circle cx="364.71" cy="253.5" r="25.5"/><circle class="cls-3" cx="190.21" cy="297" r="14"/><circle class="cls-3" cx="404.21" cy="297" r="14"/><path class="cls-4" d="M232.21,153s9-123-91-128"/><path class="cls-4" d="M365.42,153s-9-123,91-128"/><path class="cls-5" d="M412.33,177.88c7.85,7.26,22.24,23.21,26.73,45.92a7.3,7.3,0,0,1-5.86,8.59l-.29.06a13,13,0,0,1-14.82-8.82c-3.13-9.91-9-24.07-18.89-34.43a8,8,0,0,1,1.91-12.43l.2-.11A9.36,9.36,0,0,1,412.33,177.88Z"/><path class="cls-5" d="M439.21,240s9,1,9,12c0,13-18,8-18-3S439.21,240,439.21,240Z"/><circle class="cls-5" cx="360.71" cy="243.5" r="6.5"/><circle class="cls-5" cx="247.71" cy="243.5" r="6.5"/><path class="cls-4" d="M225.84,608.79s-103,4.66-98.93,115.67"/><line class="cls-4" x1="161.21" y1="405" x2="23.21" y2="311"/><path d="M45.73,300.35A28.49,28.49,0,0,1,38.5,340c-12.95,8.95-17.06-8-26-20.92s-19.35-17-6.41-26A28.5,28.5,0,0,1,45.73,300.35Z"/><line class="cls-4" x1="456" y1="405" x2="594" y2="311"/><path d="M571.48,300.35A28.5,28.5,0,0,0,578.72,340c12.94,8.95,17.06-8,26-20.92s19.35-17,6.4-26A28.5,28.5,0,0,0,571.48,300.35Z"/><path d="M134.21,701s-57.94-5.37-76,23c-7,11,4.7,22.53,12.59,20.74,15.28-3.46,35.17-6.38,51.82-5.87a11.65,11.65,0,0,0,12-12.4C134,717.47,134.08,701,134.21,701Z"/><path class="cls-4" d="M189.42,520.65S87.21,507.26,71.82,617.28"/><path d="M83.1,595.45S27,580.06,4.26,604.84c-8.82,9.6.69,23,8.77,22.62,15.65-.75,35.74-.15,52.05,3.26a11.66,11.66,0,0,0,14-10.11C80.06,611.64,83,595.43,83.1,595.45Z"/><path class="cls-4" d="M410.73,520.65s102.2-13.39,117.6,96.63"/><path d="M517,595.45s56.12-15.39,78.85,9.39c8.81,9.6-.69,23-8.78,22.62-15.65-.75-35.74-.15-52.05,3.26a11.66,11.66,0,0,1-14-10.11C520.08,611.64,517.17,595.43,517,595.45Z"/><path class="cls-4" d="M380.07,608.79S483,613.45,479,724.46"/><path d="M471.69,701s57.95-5.37,76,23c7,11-4.69,22.53-12.58,20.74-15.28-3.46-35.17-6.38-51.83-5.87a11.67,11.67,0,0,1-12-12.4C471.86,717.47,471.83,701,471.69,701Z"/><circle class="cls-6" cx="83.21" cy="332" r="17"/><circle class="cls-6" cx="112.71" cy="396.5" r="21.5"/><circle class="cls-6" cx="562.71" cy="308.5" r="21.5"/><circle class="cls-6" cx="525.71" cy="366.5" r="13.5"/><circle class="cls-6" cx="83.71" cy="555.5" r="13.5"/><circle class="cls-6" cx="141.71" cy="678.5" r="13.5"/><circle class="cls-6" cx="396.71" cy="448.5" r="13.5"/><circle class="cls-6" cx="455.71" cy="644.5" r="13.5"/><circle class="cls-6" cx="238.71" cy="539.5" r="19.5"/><circle class="cls-6" cx="429.71" cy="530.5" r="19.5"/><circle class="cls-6" cx="556.71" cy="589.5" r="20.5"/><path class="cls-4" d="M269.21,331s5,24,34,24c28,0,32-24,32-24"/></g></g></svg>