<svg xmlns="http://www.w3.org/2000/svg" viewBox="0 0 313.57 399.29"><defs><style>.cls-1{fill:#d3d3e5;}.cls-2{fill:#fde245;}.cls-3{fill:#ff7edd;}.cls-4,.cls-6{fill:none;stroke:#000;stroke-linecap:round;stroke-miterlimit:10;}.cls-4{stroke-width:9px;}.cls-5,.cls-7,.cls-8{fill:#fff;}.cls-6{stroke-width:11px;}.cls-7{opacity:0.1;}.cls-8{opacity:0.11;}</style></defs><title>Fichier 17</title><g id="Calque_2" data-name="Calque 2"><g id="Calque_2-2" data-name="Calque 2"><path class="cls-1" d="M119.62,68c22,1,46-17,65-5,1,1,3.11,6.53,5,4,3-4,10-3,13,1,1.74,7.53,11.17,0,16.8-2.82a10.94,10.94,0,0,1-3.23-5.59c-2.76-12.25-6-16.18-10.36-31.79a35.65,35.65,0,0,0-31-25.91,177.51,177.51,0,0,0-42.32,1.63,32.82,32.82,0,0,0-27.19,27.13c-2.53,15.36-5.23,20.52-6.68,28.52A10.91,10.91,0,0,1,96.53,64c3.55,2.07,6.91,4.45,11.09,6C109.62,67,117.62,66,119.62,68Z"/><path class="cls-1" d="M89.32,201.14s-110.75,34.13-85.61,90.4,111.35-23.35,115.54-38.31S89.32,201.14,89.32,201.14Z"/><path class="cls-1" d="M224.25,201.14s110.75,34.13,85.6,90.4-111.34-23.35-115.53-38.31S224.25,201.14,224.25,201.14Z"/><rect class="cls-2" x="63.58" y="69.44" width="190.37" height="329.85" rx="95.18" ry="95.18"/><path d="M63.58,226s79,52.38,190.37,0v29s-94.59,54.48-190.37,0Z"/><path d="M63.58,276.27s79,52.38,190.37,0v29s-94.59,54.47-190.37,0Z"/><circle cx="118.95" cy="151.76" r="22.76"/><circle cx="56.69" cy="15.27" r="15.27"/><circle cx="248.86" cy="15.27" r="15.27"/><circle cx="193.78" cy="151.76" r="15.27"/><circle class="cls-3" cx="89.32" cy="177.8" r="8.38"/><circle class="cls-3" cx="217.43" cy="177.8" r="8.38"/><path class="cls-4" d="M114.46,91.59S119.85,18,60,15"/><path class="cls-4" d="M194.21,91.59S188.82,18,248.68,15"/><path class="cls-4" d="M137.21,189.17s3,14.37,20.36,14.37c16.76,0,19.15-14.37,19.15-14.37"/><path class="cls-5" d="M222.29,106.49c4.7,4.34,13.31,13.89,16,27.49a4.38,4.38,0,0,1-3.51,5.14l-.17,0a7.78,7.78,0,0,1-8.88-5.27c-1.87-5.94-5.37-14.41-11.3-20.62a4.79,4.79,0,0,1,1.14-7.44l.12-.07A5.6,5.6,0,0,1,222.29,106.49Z"/><path class="cls-5" d="M238.38,143.67s5.39.6,5.39,7.19c0,7.78-10.78,4.79-10.78-1.8S238.38,143.67,238.38,143.67Z"/><circle class="cls-5" cx="191.39" cy="145.77" r="3.89"/><circle class="cls-5" cx="125.26" cy="143.67" r="6.63"/><line class="cls-6" x1="32.12" y1="200.5" x2="89.71" y2="169.63"/><circle class="cls-7" cx="118.33" cy="151.71" r="31"/><polygon class="cls-8" points="92.29 131.27 114.91 161.47 126.89 160.75 102.87 128.13 91.24 128.84 92.29 131.27"/><polygon class="cls-8" points="102.6 122.19 121.19 147 131.03 146.41 111.3 119.61 101.74 120.19 102.6 122.19"/><circle class="cls-6" cx="119.03" cy="151.56" r="34"/><path class="cls-4" d="M47.12,185.5s-27,67,34,61"/><path class="cls-1" d="M263.14,87.85c-7.5-5.77-19.78-14-39.43-20.14a11,11,0,0,1-4.29-2.53c-5.63,2.82-15.06,5.35-16.8-2.18,1,8-10.31,12-13,4-1-3-5-18-6-19-19-12-43,12-65,11,3,14-3.18,15.41-8.39,13.63a4.55,4.55,0,0,1-2.91-3.41c-1.1-5.37-5.26-7.95-10.79-5.24a11,11,0,0,1-4.24,3.32C84.07,70.93,68,78.36,56.12,86a25.2,25.2,0,0,0-11.5,21.25h0a11,11,0,0,0,14.47,10.5c32-10.41,112.59-30.13,199-.25A11,11,0,0,0,272.62,107h0C272.62,100.46,268.35,91.85,263.14,87.85Z"/></g></g></svg>