<svg xmlns="http://www.w3.org/2000/svg" viewBox="0 0 630.14 667"><defs><style>.cls-1{fill:#d3d3e5;}.cls-2{fill:#fde245;}.cls-3{fill:#ff7edd;}.cls-4{fill:none;stroke:#000;stroke-linecap:round;stroke-miterlimit:10;stroke-width:14px;}.cls-5{fill:#fff;}.cls-6{fill:#f2f2f2;}</style></defs><title>Fichier 18</title><g id="Calque_2" data-name="Calque 2"><g id="Calque_2-2" data-name="Calque 2"><path class="cls-1" d="M202.31,336s-185,57-143,151,186-39,193-64S202.31,336,202.31,336Z"/><path class="cls-1" d="M427.7,336s185,57,143,151-186-39-193-64S427.7,336,427.7,336Z"/><rect class="cls-2" x="159.31" y="116" width="318" height="551" rx="159" ry="159"/><path d="M159.31,377.5s132,87.5,318,0V426s-158,91-318,0Z"/><path d="M159.31,461.5s132,87.5,318,0V510s-158,91-318,0Z"/><circle cx="251.81" cy="253.5" r="25.5"/><circle cx="147.81" cy="25.5" r="25.5"/><circle cx="468.81" cy="25.5" r="25.5"/><circle cx="376.81" cy="253.5" r="25.5"/><circle class="cls-3" cx="202.31" cy="297" r="14"/><circle class="cls-3" cx="416.31" cy="297" r="14"/><path class="cls-4" d="M244.31,153s9-123-91-128"/><path class="cls-4" d="M377.52,153s-9-123,91-128"/><path class="cls-4" d="M282.31,316s5,24,34,24c28,0,32-24,32-24"/><path class="cls-5" d="M424.43,177.88c7.85,7.26,22.24,23.21,26.73,45.92a7.3,7.3,0,0,1-5.86,8.59l-.3.06a13,13,0,0,1-14.82-8.82c-3.13-9.91-9-24.07-18.89-34.43a8,8,0,0,1,1.91-12.43l.2-.11A9.37,9.37,0,0,1,424.43,177.88Z"/><path class="cls-5" d="M451.31,240s9,1,9,12c0,13-18,8-18-3S451.31,240,451.31,240Z"/><circle class="cls-5" cx="372.81" cy="243.5" r="6.5"/><circle class="cls-5" cx="259.81" cy="243.5" r="6.5"/><path class="cls-4" d="M173.31,411s-153,33-137-114"/><path class="cls-4" d="M460.14,411s153,33,137-114"/><path d="M2.24,325.59l83.94-73c-3.64-11,2.6-26.8,16.16-38.52,16.18-14,36.64-16.84,45.69-6.37S151.31,238,135.12,252c-13.55,11.72-30.1,15.62-40.44,10.43l-83.94,73a6.5,6.5,0,0,1-8.5-9.83Z"/><path d="M616.6,226.75a5.46,5.46,0,0,1,7.79,2.29,58.5,58.5,0,0,1-99.22,60.83,5.47,5.47,0,0,1,1.5-8Z"/><path class="cls-6" d="M477.31,384c-31,15-79,36.33-160,38-97,2-158-38-158-38v19s27.06,22.88,89,34.74V550.5a69.5,69.5,0,0,0,69.5,69.5h0a69.5,69.5,0,0,0,69.5-69.5V437.74c63-12.74,90-33.74,90-33.74Z"/></g></g></svg>