<svg xmlns="http://www.w3.org/2000/svg" viewBox="0 0 194.5 56.25"><defs><style>.cls-1{fill:#fff;}.cls-2{fill:#ff7edd;}</style></defs><title>Fichier 2</title><g id="Calque_2" data-name="Calque 2"><g id="Calque_1-2" data-name="Calque 1"><rect class="cls-1" width="194.5" height="56.25" rx="28.13" ry="28.13"/><polygon class="cls-2" points="160.85 18.57 177.37 28.18 160.79 37.68 160.85 18.57 177.37 28.18 160.79 37.68 160.85 18.57"/><path class="cls-2" d="M33.13,35.7V20.33H43.46v3.13H36.71v2.91h6.38v3H36.71v3.19h7.14V35.7Z"/><path class="cls-2" d="M56.07,35.7,49.89,25.65h-.07l.09,10.05h-3.6V20.33h4.23l6.16,10h.07l-.09-10h3.6V35.7Z"/><path class="cls-2" d="M78.91,35.7l-1.19-3h-6l-1.13,3h-4l6.45-15.37h3.6L83,35.7ZM74.79,24.44l-2,5.27H76.7Z"/><path class="cls-2" d="M91.28,35.7H87.57L81.75,20.33h4.17l3.56,10.9h.09l3.54-10.9h4.1Z"/><path class="cls-2" d="M108.24,35.7l-1.2-3h-6l-1.13,3h-4l6.44-15.37H106l6.38,15.37Zm-4.13-11.26-2,5.27H106Z"/><path class="cls-2" d="M123.41,35.7l-6.19-10.05h-.06l.08,10.05h-3.6V20.33h4.23l6.17,10h.06l-.08-10h3.6V35.7Z"/><path class="cls-2" d="M137.37,23.5V35.7h-3.72V23.5h-4.34V20.33h12.4V23.5Z"/></g></g></svg>