<svg xmlns="http://www.w3.org/2000/svg" viewBox="0 0 1897 872"><defs><style>.cls-1{fill:#262560;}.cls-2{fill:#151542;}.cls-3{fill:#ff7edd;}.cls-4{fill:#fff;}.cls-5{fill:#fde245;}.cls-6{fill:#8a92a0;}.cls-7{fill:#4b5166;}.cls-8{fill:#d3d3e5;}.cls-9{fill:none;stroke:#000;stroke-linecap:round;stroke-miterlimit:10;stroke-width:8px;}.cls-10{fill:#656d82;}.cls-11{fill:#b0b0d6;}</style></defs><title>Fichier 58</title><g id="Calque_2" data-name="Calque 2"><g id="Calque_2-2" data-name="Calque 2"><rect class="cls-1" width="1897" height="872"/><ellipse class="cls-2" cx="1237" cy="654.26" rx="102" ry="20.74"/><path class="cls-3" d="M1897,0V872H1411s286-62,202-331,116-341,190-367,90-106,26-174Z"/><path class="cls-3" d="M208.39,0S361.22,90.5,270,220c-81,115-107,195-33,351,53.34,112.45.8,240-96.1,301H0V0Z"/><circle class="cls-4" cx="1501" cy="172" r="28"/><circle class="cls-4" cx="212" cy="637" r="28"/><circle class="cls-5" cx="1620" cy="562" r="47"/><circle class="cls-4" cx="1508" cy="87" r="11"/><circle class="cls-4" cx="150" cy="665" r="11"/><circle class="cls-4" cx="442" cy="265" r="11"/><circle class="cls-4" cx="463.5" cy="235.5" r="5.5"/><circle class="cls-5" cx="1702.5" cy="526.5" r="5.5"/><circle class="cls-5" cx="1446.5" cy="119.5" r="14.5"/><circle class="cls-5" cx="254.5" cy="694.5" r="14.5"/><circle class="cls-4" cx="1667.5" cy="471.5" r="14.5"/><circle class="cls-4" cx="450.5" cy="307.5" r="14.5"/><circle class="cls-5" cx="385.5" cy="336.5" r="23.5"/><path class="cls-6" d="M1177.6,229.16c.62.61,1.85-.62,2.46-.62,1.84,6.15,9.84,6.76,14.75,4.31,3.69-1.85,7.38-8,3.69-12.3,9.83-1.23,21.51,2.46,31.35.62,14.13-2.46,30.12,0,44.87,4.3-2.46,3.69,1.23,6.15,4.3,7.38,3.07.61,6.76.61,9.22-1.85,7.42-6.43,18-7.69,27.33-11.46l-65.69-12.79a77,77,0,0,0-30.21.16l-52,10.69A27.25,27.25,0,0,1,1177.6,229.16Z"/><rect class="cls-7" x="1323.52" y="230.97" width="6.15" height="36.45"/><path class="cls-8" d="M1168,384.05s-113.71,35-87.9,92.81,114.33-24,118.63-39.34S1168,384.05,1168,384.05Z"/><path class="cls-8" d="M1306.55,384.05s113.71,35,87.9,92.81-114.33-24-118.63-39.34S1306.55,384.05,1306.55,384.05Z"/><rect class="cls-5" x="1141.59" y="248.83" width="195.46" height="338.67" rx="97.73" ry="97.73"/><path d="M1141.59,409.56s81.13,53.78,195.46,0v29.81s-97.12,55.93-195.46,0Z"/><path d="M1141.59,461.19s81.13,53.78,195.46,0V491s-97.12,55.93-195.46,0Z"/><circle cx="1198.44" cy="333.34" r="15.67"/><circle cx="1134.52" cy="193.2" r="15.67"/><circle cx="1331.82" cy="193.2" r="15.67"/><circle cx="1275.27" cy="333.34" r="15.67"/><path class="cls-9" d="M1193.83,271.57s5.53-75.6-55.93-78.68"/><path class="cls-9" d="M1275.71,271.57s-5.53-75.6,55.93-78.68"/><path class="cls-9" d="M1217.19,371.76s3.07,14.75,20.9,14.75c17.21,0,19.67-14.75,19.67-14.75"/><path class="cls-4" d="M1304.54,286.86c4.83,4.46,13.67,14.27,16.43,28.22a4.5,4.5,0,0,1-3.6,5.29l-.18,0a8,8,0,0,1-9.11-5.42c-1.93-6.09-5.52-14.79-11.61-21.16a4.92,4.92,0,0,1,1.17-7.64l.13-.07A5.75,5.75,0,0,1,1304.54,286.86Z"/><path class="cls-4" d="M1321.06,325s5.54.62,5.54,7.38c0,8-11.07,4.92-11.07-1.84S1321.06,325,1321.06,325Z"/><circle class="cls-4" cx="1272.81" cy="327.19" r="4"/><circle class="cls-4" cx="1203.36" cy="327.19" r="4"/><path class="cls-3" d="M1167.91,380.3c-19.65-11.71-12.76-31.65,0-19.39C1177.61,349.68,1190.37,365.76,1167.91,380.3Z"/><path class="cls-3" d="M1308,380.3c-19.65-11.71-12.76-31.65,0-19.39C1317.69,349.68,1330.45,365.76,1308,380.3Z"/><path class="cls-7" d="M1165.13,239.44l2.09,40.28s57.1,30.57,143.19-.05c0-37.22-.59-42-.59-42Z"/><path class="cls-10" d="M1292.16,228.2a27.44,27.44,0,0,0-3.92,2.8c-2.46,2.46-6.15,2.46-9.22,1.85-2.24-.9-4.8-2.45-5.08-4.65h-74.78a10.28,10.28,0,0,1-4.35,4.65c-4.91,2.45-12.91,1.84-14.75-4.31-.61,0-1.84,1.23-2.46.62-.15-.32-.31-.64-.47-1H1138v.16a11.52,11.52,0,0,0,9.26,11.3l73.27,14.71a67,67,0,0,0,25.28.2l81.63-15a11.53,11.53,0,0,0,9.44-11.34Z"/><path class="cls-6" d="M1332.23,222.79,1309,218.25c-9.3,3.77-13,4.63-20.4,11.06-3.54,4.69-6.46,4.15-9.53,3.54a5.76,5.76,0,0,1-2.61-8.76c-14.75-4.31-32.43-8.76-46.56-6.3-9.84,1.84-26.06.74-35.89,2,3.69,4.31,2.92,6.7.7,10.17-3.84,6-11.06,4.41-13.06-1.08-.62,0-3.54-3.53-4.15-4.15-2.33-4.95-2.3-5.15-6.44-7.78l-28.35,5.83a5.78,5.78,0,0,0-4.63,5.67v.13a5.79,5.79,0,0,0,4.65,5.68l76.9,15.43a71.88,71.88,0,0,0,27.23.22l85.36-15.71a5.79,5.79,0,0,0,.06-11.38Z"/><circle class="cls-10" cx="1326.6" cy="275.07" r="8.74"/><path class="cls-11" d="M634.83,424.2V404q0-7.35,3.61-11a12.79,12.79,0,0,1,9.56-3.68,13,13,0,0,1,9.39,3.5q3.65,3.51,3.64,10.58V404h-5.11v-.49q0-5-2.14-7.28a8.36,8.36,0,0,0-11.8.24q-2,2.56-2,8v19.76q0,10,8.13,10a7.39,7.39,0,0,0,5.75-2.31q2.1-2.31,2.1-7.08v-.63h5v.7q0,7-3.57,10.48a12.72,12.72,0,0,1-9.25,3.47,12.92,12.92,0,0,1-9.6-3.68Q634.82,431.5,634.83,424.2Z"/><path class="cls-11" d="M694,438.29h-5.11V415.93H674v22.36h-5.11V389.94H674v21.44h14.86V389.94H694Z"/><path class="cls-11" d="M707.2,426l-3.08,12.34h-5.33L712,389.94h4.7l13.17,48.35h-5.4L721.35,426Zm7.07-28.3-5.95,23.89h11.91Z"/><path class="cls-11" d="M759.6,404q0,13.82-12.4,13.81h-7.43v20.46h-5.11V389.94H747.2q6.45,0,9.43,3.54T759.6,404Zm-5,0q0-5-1.86-7.28c-1.24-1.5-3.16-2.25-5.78-2.25h-7.15v18.78h7.15c2.62,0,4.54-.72,5.78-2.17S754.56,407.29,754.56,404Z"/><path class="cls-11" d="M771,389.94v48.35H765.9V389.94Z"/><path class="cls-11" d="M791,394.49v43.8h-5v-43.8H776v-4.55h25v4.55Z"/><path class="cls-11" d="M810.67,417.13v21.16h-5.12V389.94h12.76q6.38,0,9.28,3.36t2.91,10.3q0,10.38-7.15,12.75l8.55,21.94h-5.47l-8-21.16Zm7.57-4.49q3.71,0,5.43-2.27t1.71-6.77q0-4.55-1.64-6.83c-1.1-1.52-2.94-2.28-5.5-2.28h-7.57v18.15Z"/><path class="cls-11" d="M843.87,411.38H858V416H843.87v17.73h16.47v4.56H838.83V389.94h21.51v4.55H843.87Z"/><path class="cls-11" d="M897.47,428.55v9.74h-5.12v-9.74H877.64V424l10.16-34.05h5.11L882.62,424h9.73V411.31h5.12V424h4.27v4.56Z"/><path class="cls-4" d="M359.87,482.93v23.82H349.3V447.42h16.16q8.78,0,12.43,4.22t3.65,13.5a26,26,0,0,1-1.63,9.88,11.52,11.52,0,0,1-5.33,5.94l8.85,25.79h-11L365,482.93Zm5.51-9.45c2.12,0,3.58-.71,4.38-2.11a16.93,16.93,0,0,0,0-12.42c-.77-1.38-2.25-2.07-4.42-2.07h-5.51v16.6Z"/><path class="cls-4" d="M399.34,471.84h13.75v9.46H399.34v16h16v9.46H388.85V447.42h26.48V457h-16Z"/><path class="cls-4" d="M438.63,457v49.78H428.14V457H417.82v-9.55h31V457Z"/><path class="cls-4" d="M452.47,490.41V463.67q0-8.42,4.73-12.76t12.47-4.35q7.47,0,12,4.35t4.51,12.76v26.74q0,8.26-4.77,12.64t-12.34,4.39q-7.65,0-12.12-4.34T452.47,490.41Zm23.13-1.2V465.39q0-4.54-1.55-6.92a5.19,5.19,0,0,0-4.64-2.36,5.35,5.35,0,0,0-4.86,2.32q-1.5,2.32-1.5,7v23.82q0,8.69,6.36,8.68a5.28,5.28,0,0,0,4.6-2.27A11.1,11.1,0,0,0,475.6,489.21Z"/><path class="cls-4" d="M495.16,499.7a16.84,16.84,0,0,1-2.11-8.51V447.42h10.58v43.51c0,2.41.45,4.17,1.37,5.29a5.15,5.15,0,0,0,4.21,1.67q5.6,0,5.59-7V447.42h10.58v43.77a17.24,17.24,0,0,1-2.06,8.51,14.44,14.44,0,0,1-5.77,5.72,17.15,17.15,0,0,1-8.34,2,16.9,16.9,0,0,1-8.29-2A14.73,14.73,0,0,1,495.16,499.7Z"/><path class="cls-4" d="M543.18,482.93v23.82H532.6V447.42h16.16q8.78,0,12.43,4.22t3.65,13.5a26,26,0,0,1-1.63,9.88,11.52,11.52,0,0,1-5.33,5.94l8.85,25.79h-11l-7.48-23.82Zm5.5-9.45c2.12,0,3.58-.71,4.38-2.11a16.87,16.87,0,0,0,.05-12.42c-.78-1.38-2.25-2.07-4.43-2.07h-5.5v16.6Z"/><path class="cls-4" d="M597.51,495.23l-2.41,11.52h-11l15.22-59.33h10.31l15.14,59.33h-11l-2.41-11.52Zm5.42-64.83,8.51,11.69h-8.51L592.35,430.4Zm1.55,31.3-5,24.07h10Z"/><path class="cls-4" d="M654.51,447.42v49.87h15.91v9.46H643.94V447.42Z"/><path class="cls-4" d="M685.81,495.23l-2.41,11.52h-11l15.21-59.33h10.32l15.13,59.33h-11l-2.41-11.52Zm7-33.53-5,24.07h10Z"/><path class="cls-4" d="M742.81,482.93v23.82H732.23V447.42H748.4c5.84,0,10,1.41,12.42,4.22s3.66,7.31,3.66,13.5a26,26,0,0,1-1.64,9.88,11.48,11.48,0,0,1-5.33,5.94l8.86,25.79h-11l-7.48-23.82Zm5.5-9.45c2.12,0,3.58-.71,4.39-2.11a16.93,16.93,0,0,0,0-12.42q-1.15-2.07-4.43-2.07h-5.5v16.6Z"/><path class="cls-4" d="M773.89,499.7a16.84,16.84,0,0,1-2.11-8.51V447.42h10.58v43.51q0,3.61,1.37,5.29a5.17,5.17,0,0,0,4.22,1.67q5.58,0,5.59-7V447.42h10.57v43.77a17.24,17.24,0,0,1-2.06,8.51,14.47,14.47,0,0,1-5.76,5.72,17.21,17.21,0,0,1-8.34,2,16.94,16.94,0,0,1-8.3-2A14.73,14.73,0,0,1,773.89,499.7Z"/><path class="cls-4" d="M811,490.41V463.67q0-8.42,4.73-12.76t12.46-4.35q7.4,0,12,4.3t4.55,13.07v1.81H834.12V464q0-4-1.68-6a5.66,5.66,0,0,0-4.51-1.93,5.35,5.35,0,0,0-4.86,2.32q-1.52,2.32-1.51,7v23.82q0,8.69,6.37,8.68a5.63,5.63,0,0,0,4.51-2q1.68-2,1.68-5.85v-1.55h10.49v1.64q0,8.59-4.78,12.94a17.51,17.51,0,0,1-12.25,4.34q-7.65,0-12.12-4.34T811,490.41Z"/><path class="cls-4" d="M883.9,506.75H873.32V481.3H862.14v25.45H851.57V447.42h10.57v24.42h11.18V447.42H883.9Z"/><path class="cls-4" d="M901.61,471.84h13.75v9.46H901.61v16h16v9.46H891.12V447.42H917.6V457h-16Z"/><path class="cls-11" d="M918.82,408.59v6.19h-5.43v-6.19Zm0,23.51v6.19h-5.43V432.1Z"/></g></g></svg>