<svg xmlns="http://www.w3.org/2000/svg" viewBox="0 0 1897 872"><defs><style>.cls-1{isolation:isolate;}.cls-2{fill:#262560;}.cls-13,.cls-3{fill:#ff7edd;}.cls-11,.cls-12,.cls-4{fill:#fff;}.cls-5{fill:#fde245;}.cls-6{fill:#b0b0d6;}.cls-7{fill:#d3d3e5;}.cls-10,.cls-8{fill:none;stroke:#000;stroke-linecap:round;stroke-miterlimit:10;}.cls-8{stroke-width:9px;}.cls-9{fill:#151542;}.cls-10{stroke-width:11px;}.cls-11{opacity:0.1;}.cls-12{opacity:0.11;}.cls-13{opacity:0.63;mix-blend-mode:luminosity;}.cls-14{fill:#fff46d;}</style></defs><title>Fichier 47</title><g class="cls-1"><g id="Calque_2" data-name="Calque 2"><g id="Calque_2-2" data-name="Calque 2"><rect class="cls-2" width="1897" height="872"/><path class="cls-3" d="M1897,0V872H1411s286-62,202-331,116-341,190-367,90-106,26-174Z"/><path class="cls-3" d="M208.39,0S361.22,90.5,270,220c-81,115-107,195-33,351,53.34,112.45.8,240-96.1,301H0V0Z"/><circle class="cls-4" cx="1501" cy="172" r="28"/><circle class="cls-4" cx="212" cy="637" r="28"/><circle class="cls-5" cx="1620" cy="562" r="47"/><circle class="cls-4" cx="1508" cy="87" r="11"/><circle class="cls-4" cx="150" cy="665" r="11"/><circle class="cls-4" cx="442" cy="265" r="11"/><circle class="cls-4" cx="463.5" cy="235.5" r="5.5"/><circle class="cls-5" cx="1702.5" cy="526.5" r="5.5"/><circle class="cls-5" cx="1446.5" cy="119.5" r="14.5"/><circle class="cls-5" cx="254.5" cy="694.5" r="14.5"/><circle class="cls-4" cx="1667.5" cy="471.5" r="14.5"/><circle class="cls-4" cx="450.5" cy="307.5" r="14.5"/><circle class="cls-5" cx="385.5" cy="336.5" r="23.5"/><path class="cls-6" d="M573,407.6V388.2q0-7.06,3.46-10.6a12.31,12.31,0,0,1,9.2-3.54,12.49,12.49,0,0,1,9,3.37q3.51,3.38,3.5,10.17v.6h-4.91v-.47c0-3.18-.69-5.52-2.06-7a7.12,7.12,0,0,0-5.49-2.22,7,7,0,0,0-5.85,2.46q-2,2.46-2,7.71v19q0,9.56,7.81,9.56a7.11,7.11,0,0,0,5.53-2.22c1.34-1.48,2-3.75,2-6.8v-.61H598v.67q0,6.74-3.44,10.07a12.23,12.23,0,0,1-8.89,3.33,12.38,12.38,0,0,1-9.22-3.53Q573,414.6,573,407.6Z"/><path class="cls-6" d="M629.82,421.14H624.9V399.65H610.63v21.49h-4.92V374.67h4.92v20.61H624.9V374.67h4.92Z"/><path class="cls-6" d="M642.54,409.28l-3,11.86h-5.12l12.66-46.47h4.51l12.66,46.47h-5.18l-3-11.86Zm6.8-27.2-5.72,23h11.45Z"/><path class="cls-6" d="M692.91,388.2q0,13.28-11.92,13.27h-7.14v19.67h-4.91V374.67h12q6.19,0,9.06,3.4T692.91,388.2Zm-4.85,0q0-4.84-1.78-7t-5.56-2.15h-6.87V397.1h6.87q3.78,0,5.56-2.09C687.47,393.61,688.06,391.35,688.06,388.2Z"/><path class="cls-6" d="M703.82,374.67v46.47H699V374.67Z"/><path class="cls-6" d="M723.07,379.05v42.09h-4.85V379.05h-9.56v-4.38h24v4.38Z"/><path class="cls-6" d="M742,400.8v20.34h-4.91V374.67h12.25q6.13,0,8.93,3.23t2.79,9.9q0,10-6.87,12.26l8.22,21.08h-5.26l-7.67-20.34Zm7.28-4.31q3.56,0,5.21-2.19c1.1-1.46,1.65-3.62,1.65-6.5s-.52-5.1-1.58-6.57-2.82-2.18-5.28-2.18H742v17.44Z"/><path class="cls-6" d="M773.91,395.28h13.6v4.44h-13.6v17h15.82v4.38H769.06V374.67h20.67v4.38H773.91Z"/><path class="cls-6" d="M820,394.4a17.8,17.8,0,0,0,1.72-3.8,14.09,14.09,0,0,0,.57-4.14v-1.89a6.93,6.93,0,0,0-1.31-4.55,4.93,4.93,0,0,0-4-1.58A4.54,4.54,0,0,0,813.3,380,6.71,6.71,0,0,0,812,384.5v2.69H807.1V384a10,10,0,1,1,20.07-.07v2.5a16.92,16.92,0,0,1-.74,5.18,26.22,26.22,0,0,1-2.36,5.05l-11.31,20.07H827v4.38H807.1v-3.91Z"/><path class="cls-6" d="M850.13,392.38v6h-5.26v-6Zm0,22.76v6h-5.26v-6Z"/><path class="cls-4" d="M327,477.24v-25.7q0-8.1,4.55-12.27t12-4.18q7.11,0,11.48,4.13t4.38,12.57v1.73H349.23v-1.65q0-3.89-1.61-5.75a5.48,5.48,0,0,0-4.34-1.85,5.15,5.15,0,0,0-4.67,2.23c-1,1.48-1.44,3.72-1.44,6.69v22.89q0,8.35,6.11,8.35a5.42,5.42,0,0,0,4.34-1.9,8.52,8.52,0,0,0,1.61-5.62v-1.49h10.08V477q0,8.26-4.59,12.44A16.81,16.81,0,0,1,343,493.6q-7.35,0-11.65-4.17T327,477.24Z"/><path class="cls-4" d="M397.08,492.94H386.91V468.48H376.17v24.46H366v-57h10.17v23.47h10.74V435.92h10.17Z"/><path class="cls-4" d="M403.69,477.24v-25.7q0-8.1,4.54-12.27t12-4.18q7.2,0,11.53,4.18t4.34,12.27v25.7q0,7.93-4.59,12.15c-3.05,2.8-7,4.21-11.85,4.21s-8.79-1.39-11.66-4.17S403.69,482.58,403.69,477.24Zm22.22-1.16V453.19q0-4.38-1.48-6.65a5,5,0,0,0-4.46-2.27,5.14,5.14,0,0,0-4.67,2.23c-1,1.48-1.45,3.72-1.45,6.69v22.89q0,8.35,6.12,8.35a5.07,5.07,0,0,0,4.42-2.19A10.64,10.64,0,0,0,425.91,476.08Z"/><path class="cls-4" d="M453.1,435.92v57H443v-57Z"/><path class="cls-4" d="M458.47,476.66h9.59q.17,4.21,1.69,6.2a5.35,5.35,0,0,0,4.51,2,5.05,5.05,0,0,0,4.33-1.82q1.37-1.81,1.37-5.78a8.26,8.26,0,0,0-1.53-5.25,13.72,13.72,0,0,0-5.17-3.59l-3.88-1.74q-5.53-2.48-8-6.11T459,450.79q0-7.19,4.17-11.48t11.28-4.3q7,0,10.87,4.26t4.09,12.27H480a11.25,11.25,0,0,0-1.36-5.83,4.74,4.74,0,0,0-4.26-1.94q-5.54,0-5.54,6.53a7.59,7.59,0,0,0,1.37,4.75,11.45,11.45,0,0,0,4.58,3.18l3.72,1.65q6,2.65,8.64,6.62t2.68,10.57q0,7.94-4.13,12.23T474,493.6c-5,0-8.84-1.46-11.49-4.38S458.53,482.11,458.47,476.66Z"/><path class="cls-4" d="M506,435.92v57H495.91v-57Z"/><path class="cls-4" d="M523.42,470.05v22.89H513.26v-57h15.53q8.43,0,12,4.05t3.51,13a25,25,0,0,1-1.57,9.51,11.09,11.09,0,0,1-5.13,5.7l8.52,24.79H535.49l-7.19-22.89Zm5.29-9.09q3.06,0,4.22-2a12.34,12.34,0,0,0,1.15-6A12.55,12.55,0,0,0,533,447c-.75-1.32-2.16-2-4.26-2h-5.29V461Z"/><path class="cls-4" d="M567.76,486.16a16.22,16.22,0,0,1-2-8.18V435.92H575.9v41.81c0,2.32.44,4,1.32,5.09a4.94,4.94,0,0,0,4,1.61q5.37,0,5.37-6.7V435.92H596.8V478a16.51,16.51,0,0,1-2,8.18,13.83,13.83,0,0,1-5.54,5.5,16.48,16.48,0,0,1-8,1.94,16.26,16.26,0,0,1-8-1.94A14.19,14.19,0,0,1,567.76,486.16Z"/><path class="cls-4" d="M636,492.94H625.81l-11.9-30.41v30.41H603.74v-57h10.17l11.9,31.73V435.92H636Z"/><path class="cls-4" d="M653,459.39h13.22v9.09H653v15.37h15.37v9.09H642.91v-57h25.46v9.17H653Z"/><path class="cls-4" d="M698.53,459.64h13.22v9.17H698.53v24.13H688.36v-57h25.45v9.17H698.53Z"/><path class="cls-4" d="M729.18,435.92v47.93h15.29v9.09H719v-57Z"/><path class="cls-4" d="M759.43,459.39h13.22v9.09H759.43v15.37H774.8v9.09H749.34v-57H774.8v9.17H759.43Z"/><path class="cls-4" d="M782.36,486.16a16.22,16.22,0,0,1-2-8.18V435.92H790.5v41.81c0,2.32.44,4,1.32,5.09a4.94,4.94,0,0,0,4,1.61q5.37,0,5.37-6.7V435.92H811.4V478a16.51,16.51,0,0,1-2,8.18,13.83,13.83,0,0,1-5.54,5.5,16.45,16.45,0,0,1-8,1.94,16.28,16.28,0,0,1-8-1.94A14.19,14.19,0,0,1,782.36,486.16Z"/><path class="cls-4" d="M828.51,470.05v22.89H818.35v-57h15.53q8.43,0,11.94,4.05t3.52,13a25,25,0,0,1-1.58,9.51,11,11,0,0,1-5.12,5.7l8.51,24.79H840.57l-7.18-22.89ZM833.8,461q3.06,0,4.21-2a12.33,12.33,0,0,0,1.16-6,12.55,12.55,0,0,0-1.11-5.95q-1.12-2-4.26-2h-5.29V461Z"/><path class="cls-7" d="M1167.88,386.94s-110.75,34.12-85.61,90.39S1193.62,454,1197.81,439,1167.88,386.94,1167.88,386.94Z"/><path class="cls-7" d="M1302.81,386.94s110.75,34.12,85.6,90.39S1277.07,454,1272.88,439,1302.81,386.94,1302.81,386.94Z"/><rect class="cls-5" x="1142.14" y="255.23" width="190.37" height="329.85" rx="95.18" ry="95.18"/><path d="M1142.14,411.78s79,52.38,190.37,0v29s-94.59,54.48-190.37,0Z"/><path d="M1142.14,462.07s79,52.38,190.37,0v29s-94.59,54.48-190.37,0Z"/><circle cx="1197.51" cy="337.55" r="22.76"/><circle cx="1135.25" cy="201.06" r="15.27"/><circle cx="1327.42" cy="201.06" r="15.27"/><circle cx="1272.34" cy="337.55" r="15.27"/><circle class="cls-3" cx="1167.88" cy="363.59" r="8.38"/><circle class="cls-3" cx="1295.99" cy="363.59" r="8.38"/><path class="cls-8" d="M1193,277.38s5.39-73.63-54.47-76.62"/><path class="cls-8" d="M1272.77,277.38s-5.39-73.63,54.47-76.62"/><path class="cls-8" d="M1215.77,375s3,14.37,20.35,14.37c16.77,0,19.16-14.37,19.16-14.37"/><path class="cls-4" d="M1300.85,292.28c4.7,4.34,13.31,13.89,16,27.49a4.37,4.37,0,0,1-3.51,5.14l-.17,0a7.79,7.79,0,0,1-8.88-5.28c-1.87-5.93-5.37-14.41-11.31-20.61a4.8,4.8,0,0,1,1.15-7.44l.12-.07A5.61,5.61,0,0,1,1300.85,292.28Z"/><path class="cls-4" d="M1316.94,329.47s5.39.6,5.39,7.18c0,7.78-10.78,4.79-10.78-1.8S1316.94,329.47,1316.94,329.47Z"/><circle class="cls-4" cx="1269.95" cy="331.56" r="3.89"/><circle class="cls-4" cx="1203.82" cy="329.46" r="6.63"/><ellipse class="cls-9" cx="1237.18" cy="655.05" rx="102" ry="20.74"/><line class="cls-10" x1="1159.68" y1="409.29" x2="1182.68" y2="368.29"/><circle class="cls-11" cx="1197.18" cy="337.79" r="31"/><polygon class="cls-12" points="1166.43 317.28 1187.18 348.79 1199.18 348.79 1177.18 314.79 1165.53 314.79 1166.43 317.28"/><polygon class="cls-12" points="1177.27 308.84 1194.32 334.73 1204.18 334.73 1186.1 306.79 1176.53 306.79 1177.27 308.84"/><circle class="cls-10" cx="1197.68" cy="337.29" r="34"/><path class="cls-8" d="M1145.68,434.29c-29-16-21-53,26-47"/><ellipse class="cls-5" cx="660.91" cy="737.49" rx="51.42" ry="21.02" transform="translate(-117.46 125.25) rotate(-9.95)"/><path class="cls-13" d="M626,758.09s-24.1,10.32-21.67,50.29,98.52,18.54,77.74-30.4c-8.32-21.41-17.94-19.72-17.94-19.72S644.35,762.44,626,758.09Z"/><path class="cls-13" d="M664.17,758.26s16.82,48.11,74.89,40.22c43.75-6.91,31.52-37.54,17.14-45.69S728.59,737,706.11,741C690.64,754.09,671.46,756.88,664.17,758.26Z"/><path class="cls-13" d="M626,758.09a43.81,43.81,0,0,1-14.89-6.68c-10.73-4.69-48.56,5.61-62.32,27.08-13.55,18.38,16.78,42.57,55.69,17.18C619.09,784.18,611.72,772,626,758.09Z"/><path class="cls-13" d="M614.19,752.8s-9.08-7-.1-16.75c-5.15-4.18-31.64-9.19-51.82-2.6s-19.78,34.23.23,31.35S601.76,753,614.19,752.8Z"/><path class="cls-13" d="M709.57,724.32s21.41-19.69,57.89-11.61c17.43,3.8,34,37.48-11.26,40.08C734,752.12,734,739.16,706.11,741,706.11,741,715.8,732.6,709.57,724.32Z"/><path class="cls-13" d="M614.09,736.05s-41.56-.59-33.93-17.93,39.36-12.26,54.76,4.86C631.75,724.33,622.78,727,614.09,736.05Z"/><path class="cls-13" d="M710.17,725s-3.64-6.74-21.63-9.42c10.43-12,28.54-20.75,42.36-20.13s21.14,8.85,18.19,15.28C735.82,712,710.17,725,710.17,725Z"/><path class="cls-13" d="M634.92,723s-39.14-15.6-5.18-29.56,27.54,23.37,27.54,23.37A134.66,134.66,0,0,0,634.92,723Z"/><path class="cls-13" d="M688.54,715.62s-8.14-1.74-31.26,1.17c-4.34-9.53-4.6-23.11,11-26.85s30.05-3,40.73,10.62C699,709.09,696.25,710.57,688.54,715.62Z"/><circle class="cls-14" cx="666.08" cy="629.49" r="20.49"/><circle class="cls-14" cx="629.82" cy="651.99" r="8.01"/><circle class="cls-14" cx="713.55" cy="572.93" r="12.16"/><circle class="cls-14" cx="692.91" cy="687.34" r="12.16"/><circle class="cls-14" cx="585.79" cy="557.82" r="12.16"/></g></g></g></svg>