<svg xmlns="http://www.w3.org/2000/svg" viewBox="0 0 173.31 56.25"><defs><style>.cls-1{fill:#fff;}.cls-2{fill:#ff7edd;}</style></defs><title>Fichier 4</title><g id="Calque_2" data-name="Calque 2"><g id="Calque_1-2" data-name="Calque 1"><rect class="cls-1" width="173.31" height="56.25" rx="28.13" ry="28.13"/><polygon class="cls-2" points="139.67 18.57 156.18 28.18 139.6 37.68 139.67 18.57 156.18 28.18 139.6 37.68 139.67 18.57"/><path class="cls-2" d="M43.64,32.81H38.71l-.87,2.79H34l5.47-14.93h3.39L48.37,35.6H44.51ZM39.57,30h3.21l-1.61-5.18Z"/><path class="cls-2" d="M61.32,30.54a5.37,5.37,0,0,1-.84,2.75,5,5,0,0,1-2.16,1.85,7.27,7.27,0,0,1-3.17.66,5.84,5.84,0,0,1-4.63-1.92,7.9,7.9,0,0,1-1.7-5.41v-.74a9,9,0,0,1,.77-3.84,5.76,5.76,0,0,1,2.2-2.54,6.09,6.09,0,0,1,3.32-.9,6.46,6.46,0,0,1,4.37,1.43,5.66,5.66,0,0,1,1.87,3.94H57.77a2.67,2.67,0,0,0-.69-1.95,2.81,2.81,0,0,0-2-.6,2.15,2.15,0,0,0-2,1,6.43,6.43,0,0,0-.65,3.21v1.05A7.34,7.34,0,0,0,53.08,32a2.2,2.2,0,0,0,2.07,1,2.77,2.77,0,0,0,1.9-.58,2.49,2.49,0,0,0,.69-1.86Z"/><path class="cls-2" d="M75.1,30.54a5.47,5.47,0,0,1-.84,2.75,5,5,0,0,1-2.16,1.85,7.27,7.27,0,0,1-3.17.66,5.84,5.84,0,0,1-4.63-1.92,7.9,7.9,0,0,1-1.7-5.41v-.74a9,9,0,0,1,.77-3.84,5.76,5.76,0,0,1,2.2-2.54,6.09,6.09,0,0,1,3.32-.9,6.46,6.46,0,0,1,4.37,1.43,5.66,5.66,0,0,1,1.87,3.94H71.54a2.63,2.63,0,0,0-.68-1.95,2.81,2.81,0,0,0-2-.6,2.15,2.15,0,0,0-2,1,6.53,6.53,0,0,0-.66,3.21v1.05a7.2,7.2,0,0,0,.6,3.42,2.2,2.2,0,0,0,2.07,1,2.77,2.77,0,0,0,1.9-.58,2.49,2.49,0,0,0,.69-1.86Z"/><path class="cls-2" d="M88.51,20.67v9.77a5.6,5.6,0,0,1-.7,2.87,4.61,4.61,0,0,1-2,1.85,7.11,7.11,0,0,1-3.13.64,6.21,6.21,0,0,1-4.3-1.41,5.09,5.09,0,0,1-1.6-3.88V20.67h3.62v9.91c0,1.64.8,2.45,2.28,2.45a2.2,2.2,0,0,0,1.69-.61,2.9,2.9,0,0,0,.57-2V20.67Z"/><path class="cls-2" d="M100,29.26H94.36v3.57H101V35.6H90.76V20.67h10.3v2.78h-6.7v3.14H100Z"/><path class="cls-2" d="M106.34,35.6h-3.59V20.67h3.59Z"/><path class="cls-2" d="M112.44,32.83h6.27V35.6h-9.87V20.67h3.6Z"/></g></g></svg>