<svg xmlns="http://www.w3.org/2000/svg" viewBox="0 0 1897 872"><defs><style>.cls-1{fill:#262560;}.cls-2{fill:#151542;}.cls-3{fill:#ff7edd;}.cls-4{fill:#fff;}.cls-5{fill:#fde245;}.cls-6{fill:#b0b0d6;}.cls-7{fill:#d3d3e5;}.cls-8,.cls-9{fill:none;stroke:#000;stroke-linecap:round;stroke-miterlimit:10;}.cls-8{stroke-width:10px;}.cls-9{stroke-width:8px;}.cls-10{fill:#f2f2f2;}</style></defs><title>Fichier 57</title><g id="Calque_2" data-name="Calque 2"><g id="Calque_2-2" data-name="Calque 2"><rect class="cls-1" width="1897" height="872"/><ellipse class="cls-2" cx="1237" cy="654.26" rx="102" ry="20.74"/><path class="cls-3" d="M1897,0V872H1411s286-62,202-331,116-341,190-367,90-106,26-174Z"/><path class="cls-3" d="M208.39,0S361.22,90.5,270,220c-81,115-107,195-33,351,53.34,112.45.8,240-96.1,301H0V0Z"/><circle class="cls-4" cx="1501" cy="172" r="28"/><circle class="cls-4" cx="212" cy="637" r="28"/><circle class="cls-5" cx="1620" cy="562" r="47"/><circle class="cls-4" cx="1508" cy="87" r="11"/><circle class="cls-4" cx="150" cy="665" r="11"/><circle class="cls-4" cx="442" cy="265" r="11"/><circle class="cls-4" cx="463.5" cy="235.5" r="5.5"/><circle class="cls-5" cx="1702.5" cy="526.5" r="5.5"/><circle class="cls-5" cx="1446.5" cy="119.5" r="14.5"/><circle class="cls-5" cx="254.5" cy="694.5" r="14.5"/><circle class="cls-4" cx="1667.5" cy="471.5" r="14.5"/><circle class="cls-4" cx="450.5" cy="307.5" r="14.5"/><circle class="cls-5" cx="385.5" cy="336.5" r="23.5"/><path class="cls-6" d="M556.6,423.66v-20q0-7.31,3.59-10.95a12.69,12.69,0,0,1,9.49-3.65,12.9,12.9,0,0,1,9.32,3.48q3.62,3.47,3.61,10.5v.62h-5.07v-.48q0-4.95-2.12-7.24a7.36,7.36,0,0,0-5.67-2.29,7.26,7.26,0,0,0-6,2.54q-2,2.54-2,8v19.61q0,9.87,8.07,9.87a7.31,7.31,0,0,0,5.7-2.29q2.09-2.3,2.09-7v-.62h4.93v.69q0,7-3.54,10.4a12.66,12.66,0,0,1-9.18,3.44,12.8,12.8,0,0,1-9.53-3.65Q556.6,430.9,556.6,423.66Z"/><path class="cls-6" d="M615.29,437.64h-5.07V415.45H595.47v22.19H590.4v-48h5.07v21.27h14.75V389.66h5.07Z"/><path class="cls-6" d="M628.43,425.4l-3.06,12.24h-5.28l13.07-48h4.66l13.07,48h-5.36l-3-12.24Zm7-28.1L629.54,421h11.82Z"/><path class="cls-6" d="M680.44,403.63q0,13.71-12.31,13.7h-7.37v20.31h-5.08v-48h12.45c4.26,0,7.38,1.16,9.35,3.51S680.44,399,680.44,403.63Zm-5,0q0-5-1.84-7.23t-5.74-2.22h-7.09v18.63h7.09q3.9,0,5.74-2.15T675.43,403.63Z"/><path class="cls-6" d="M691.7,389.66v48h-5v-48Z"/><path class="cls-6" d="M711.58,394.18v43.46h-5V394.18H696.7v-4.52h24.76v4.52Z"/><path class="cls-6" d="M731.12,416.64v21H726v-48H738.7q6.33,0,9.21,3.33t2.89,10.22q0,10.31-7.09,12.66l8.48,21.77h-5.43l-7.92-21Zm7.51-4.46c2.46,0,4.25-.75,5.39-2.25s1.7-3.75,1.7-6.72-.55-5.27-1.63-6.78-2.91-2.25-5.46-2.25h-7.51v18Z"/><path class="cls-6" d="M764.07,410.93h14v4.59h-14v17.6h16.34v4.52H759.07v-48h21.34v4.52H764.07Z"/><path class="cls-6" d="M798.35,428.18v-3.06h5v2.64a6.23,6.23,0,0,0,1.47,4.42,5.34,5.34,0,0,0,4.1,1.56,5.19,5.19,0,0,0,4.2-1.67,7,7,0,0,0,1.43-4.73V422a8.37,8.37,0,0,0-1.39-5.25c-.93-1.18-2.43-1.77-4.52-1.77h-2v-4.52h2q3.06,0,4.38-1.71a8.11,8.11,0,0,0,1.32-5V400a7.06,7.06,0,0,0-1.42-4.77,5.11,5.11,0,0,0-4.07-1.63,5,5,0,0,0-4,1.56,6.48,6.48,0,0,0-1.38,4.42v2.78h-5v-2.85q0-4.93,2.71-7.68C803,390,805.6,389,809,389s5.9.9,7.68,2.71,2.68,4.36,2.68,7.65v4.1a11.69,11.69,0,0,1-1.15,5.6,8,8,0,0,1-3.86,3.37,8.47,8.47,0,0,1,4.14,3.62,13.2,13.2,0,0,1,1.15,6v5.08q0,5.36-2.78,8.23c-1.86,1.93-4.52,2.89-8,2.89s-6-.88-7.79-2.64S798.35,431.38,798.35,428.18Z"/><path class="cls-6" d="M843.68,407.94v6.19h-5.42v-6.19Zm0,23.51v6.19h-5.42v-6.19Z"/><path class="cls-4" d="M468,446.7v49.5H483.8v9.38H457.52V446.7Z"/><path class="cls-4" d="M499.25,470.94H512.9v9.38H499.25V496.2h15.87v9.38H488.84V446.7h26.28v9.48H499.25Z"/><path class="cls-4" d="M567.85,488.52q0,9-3.67,13t-12.46,4.05h-16V446.7h16q8.63,0,12.29,3.8t3.67,12.08a17.23,17.23,0,0,1-1.45,7.42,9.75,9.75,0,0,1-5,4.69,9.4,9.4,0,0,1,5.2,5A23.55,23.55,0,0,1,567.85,488.52Zm-21.67-18.18h4.43q3.67,0,5.12-1.66t1.45-5.42q0-3.93-1.45-5.55t-5.12-1.62h-4.43Zm11.17,17.41q0-4.44-1.57-6.4c-1.06-1.31-2.8-2-5.25-2h-4.35V496.2h4.35c2.61,0,4.41-.64,5.37-1.92S557.35,490.82,557.35,487.75Z"/><path class="cls-4" d="M576.77,498.59a16.74,16.74,0,0,1-2.1-8.45V446.7h10.5v43.18q0,3.58,1.37,5.25a5.08,5.08,0,0,0,4.18,1.66c3.69,0,5.55-2.3,5.55-6.91V446.7h10.49v43.44a17,17,0,0,1-2,8.45,14.25,14.25,0,0,1-5.72,5.67,16.9,16.9,0,0,1-8.27,2,16.73,16.73,0,0,1-8.24-2A14.68,14.68,0,0,1,576.77,498.59Z"/><path class="cls-4" d="M631.34,456.18v49.4H620.93v-49.4H610.68V446.7h30.81v9.48Z"/><path class="cls-4" d="M664.52,456.18v49.4H654.11v-49.4H643.87V446.7h30.81v9.48Z"/><path class="cls-4" d="M689.36,446.7v58.88H679V446.7Z"/><path class="cls-4" d="M730.14,505.58H719.65l-12.29-31.4v31.4h-10.5V446.7h10.5l12.29,32.77V446.7h10.49Z"/><path class="cls-4" d="M747.55,494.15l-2.39,11.43H734.24l15.1-58.88h10.24l15,58.88H763.68l-2.39-11.43Zm6.91-33.28-5,23.89h9.9Z"/><path class="cls-4" d="M777.84,489.37V462.83q0-8.35,4.69-12.67t12.38-4.31q7.33,0,11.86,4.18t4.52,12.38v1.79h-10.5v-1.79a7.45,7.45,0,0,0-1.7-5.25,5.77,5.77,0,0,0-4.44-1.84,5.31,5.31,0,0,0-4.82,2.31c-1,1.53-1.49,3.84-1.49,6.91v23.63q0,8.63,6.31,8.62a5.34,5.34,0,0,0,4.61-2.09,10.06,10.06,0,0,0,1.53-6v-6.23h-6.23v-8.28h16.73v15.19q0,8.19-4.74,12.54t-12.24,4.35q-7.59,0-12-4.3T777.84,489.37Z"/><path class="cls-4" d="M828.52,470.94h13.66v9.38H828.52V496.2H844.4v9.38H818.12V446.7H844.4v9.48H828.52Z"/><path class="cls-7" d="M1169.11,385.56s-111.6,34.38-86.27,91.09,112.22-23.53,116.44-38.61S1169.11,385.56,1169.11,385.56Z"/><path class="cls-7" d="M1305.09,385.56s111.61,34.38,86.27,91.09S1279.15,453.12,1274.92,438,1305.09,385.56,1305.09,385.56Z"/><rect class="cls-5" x="1143.17" y="252.83" width="191.84" height="332.41" rx="95.92" ry="95.92"/><path d="M1143.17,410.59s79.64,52.79,191.85,0v29.26s-95.32,54.9-191.85,0Z"/><path d="M1143.17,461.27s79.64,52.79,191.85,0v29.26s-95.32,54.9-191.85,0Z"/><circle cx="1198.98" cy="335.79" r="15.38"/><circle cx="1136.23" cy="198.24" r="15.38"/><circle cx="1329.89" cy="198.24" r="15.38"/><circle cx="1274.39" cy="335.79" r="15.38"/><circle class="cls-3" cx="1169.11" cy="362.03" r="8.45"/><circle class="cls-3" cx="1298.22" cy="362.03" r="8.45"/><path class="cls-8" d="M1194.45,275.16s5.43-74.21-54.9-77.23"/><path class="cls-8" d="M1274.82,275.16s-5.43-74.21,54.89-77.23"/><path class="cls-9" d="M1217.38,373.49s3,14.48,20.51,14.48c16.89,0,19.3-14.48,19.3-14.48"/><path class="cls-4" d="M1303.11,290.17c4.74,4.37,13.42,14,16.13,27.7a4.41,4.41,0,0,1-3.53,5.18l-.18,0a7.84,7.84,0,0,1-8.94-5.32c-1.89-6-5.42-14.53-11.4-20.78a4.82,4.82,0,0,1,1.15-7.49l.12-.07A5.64,5.64,0,0,1,1303.11,290.17Z"/><path class="cls-4" d="M1319.33,327.64s5.43.6,5.43,7.24c0,7.84-10.86,4.83-10.86-1.81S1319.33,327.64,1319.33,327.64Z"/><circle class="cls-4" cx="1271.97" cy="329.75" r="3.92"/><circle class="cls-4" cx="1203.8" cy="329.75" r="3.92"/><path class="cls-8" d="M1151.62,430.8S1059.32,450.71,1069,362"/><path class="cls-8" d="M1324.66,430.8s92.3,19.91,82.65-68.77"/><path d="M1048.41,379.28l50.64-44c-2.19-6.63,1.57-16.17,9.75-23.24,9.76-8.44,22.11-10.16,27.57-3.85s2,18.29-7.79,26.73c-8.18,7.07-18.16,9.42-24.4,6.29l-50.64,44a3.92,3.92,0,1,1-5.13-5.93Z"/><path d="M1419.05,319.65a3.29,3.29,0,0,1,4.7,1.38,35.3,35.3,0,0,1-59.86,36.7,3.31,3.31,0,0,1,.9-4.82Z"/><path class="cls-10" d="M1335,414.51c-18.7,9.05-47.64,21.92-96.53,22.93-58.52,1.21-95.32-22.93-95.32-22.93V426s16.32,13.8,53.69,20.95v68a41.93,41.93,0,0,0,41.93,41.93h0A41.93,41.93,0,0,0,1280.72,515v-68c38-7.68,54.3-20.35,54.3-20.35Z"/></g></g></svg>