<svg xmlns="http://www.w3.org/2000/svg" viewBox="0 0 523.8 667"><defs><style>.cls-1{fill:#8a92a0;}.cls-2{fill:#4b5166;}.cls-3{fill:#d3d3e5;}.cls-4{fill:#fde245;}.cls-5{fill:none;stroke:#000;stroke-linecap:round;stroke-miterlimit:10;stroke-width:14px;}.cls-6{fill:#fff;}.cls-7{fill:#ff7edd;}.cls-8{fill:#656d82;}</style></defs><title>Fichier 55</title><g id="Calque_2" data-name="Calque 2"><g id="Calque_2-2" data-name="Calque 2"><path class="cls-1" d="M164.8,84c1,1,3-1,4-1,3,10,16,11,24,7,6-3,12-13,6-20,16-2,35,4,51,1,23-4,49,0,73,7-4,6,2,10,7,12,5,1,11,1,15-3,12.07-10.46,29.33-12.51,44.47-18.64L282.39,47.55a125.29,125.29,0,0,0-49.15.26L148.68,65.19A44.43,44.43,0,0,1,164.8,84Z"/><rect class="cls-2" x="402.2" y="86.94" width="10" height="59.31"/><path class="cls-3" d="M149.2,336s-185,57-143,151,186-39,193-64S149.2,336,149.2,336Z"/><path class="cls-3" d="M374.6,336s185,57,143,151-186-39-193-64S374.6,336,374.6,336Z"/><rect class="cls-4" x="106.2" y="116" width="318" height="551" rx="159" ry="159"/><path d="M106.2,377.5s132,87.5,318,0V426s-158,91-318,0Z"/><path d="M106.2,461.5s132,87.5,318,0V510s-158,91-318,0Z"/><circle cx="198.7" cy="253.5" r="25.5"/><circle cx="94.7" cy="25.5" r="25.5"/><circle cx="415.7" cy="25.5" r="25.5"/><circle cx="323.7" cy="253.5" r="25.5"/><path class="cls-5" d="M191.2,153s9-123-91-128"/><path class="cls-5" d="M324.41,153s-9-123,91-128"/><path class="cls-5" d="M229.2,316s5,24,34,24c28,0,32-24,32-24"/><path class="cls-6" d="M371.32,177.88c7.85,7.26,22.24,23.21,26.73,45.92a7.3,7.3,0,0,1-5.86,8.59l-.29.06a13,13,0,0,1-14.82-8.82c-3.13-9.91-9-24.07-18.89-34.43a8,8,0,0,1,1.91-12.43l.2-.11A9.36,9.36,0,0,1,371.32,177.88Z"/><path class="cls-6" d="M398.2,240s9,1,9,12c0,13-18,8-18-3S398.2,240,398.2,240Z"/><circle class="cls-6" cx="319.7" cy="243.5" r="6.5"/><circle class="cls-6" cx="206.7" cy="243.5" r="6.5"/><path class="cls-7" d="M149,329.91c-32-19.06-20.76-51.5,0-31.56C164.81,280.07,185.57,306.24,149,329.91Z"/><path class="cls-7" d="M376.93,329.91c-32-19.06-20.76-51.5,0-31.56C392.71,280.07,413.48,306.24,376.93,329.91Z"/><path class="cls-2" d="M144.51,100.72l3.39,65.53s92.9,49.75,233-.07c0-60.56-1-68.38-1-68.38Z"/><path class="cls-8" d="M351.18,82.45A44.1,44.1,0,0,0,344.8,87c-4,4-10,4-15,3-3.64-1.46-7.81-4-8.26-7.55H199.88A16.76,16.76,0,0,1,192.8,90c-8,4-21,3-24-7-1,0-3,2-4,1-.25-.52-.5-1-.76-1.55H100.42v.25a18.75,18.75,0,0,0,15.06,18.39L234.68,125a108.6,108.6,0,0,0,41.13.33l132.82-24.45A18.75,18.75,0,0,0,424,82.45Z"/><path class="cls-1" d="M416.37,73.63l-27.1-5.27c-15.14,6.13-32.4,8.18-44.47,18.64-4,4-10,4-15,3-5-2-11-6-7-12-24-7-50-11-73-7-16,3-35-3-51-1,6,7,0,17-6,20-8,4-21,3-24-7-1,0-3,2-4,1a44.43,44.43,0,0,0-16.12-18.81L108,73.57a9.42,9.42,0,0,0-7.53,9.23V83A9.42,9.42,0,0,0,108,92.25L233.1,117.36a117,117,0,0,0,44.3.36L416.27,92.15a9.42,9.42,0,0,0,.1-18.52Z"/><circle class="cls-8" cx="407.2" cy="158.69" r="14.22"/></g></g></svg>