<svg xmlns="http://www.w3.org/2000/svg" viewBox="0 0 573.42 319.48"><defs><style>.cls-1{fill:#fff;}.cls-2{font-size:34px;fill:#666;font-family:Roboto-Light, Roboto;}.cls-3{letter-spacing:-0.02em;}.cls-4{letter-spacing:-0.01em;}.cls-5{letter-spacing:-0.01em;}.cls-6{letter-spacing:-0.03em;}</style></defs><title>Fichier 59</title><g id="Calque_2" data-name="Calque 2"><g id="Calque_2-2" data-name="Calque 2"><path class="cls-1" d="M417.36,0H185.27C99.44,0,29.21,69,29.21,153.27h0a150,150,0,0,0,23.3,80.3l-49.94,66c-7.71,10.19,3.28,23.83,15.15,18.81L102,282.76a157,157,0,0,0,83.24,23.79H417.36c85.83,0,156.06-69,156.06-153.28h0C573.42,69,503.19,0,417.36,0Z"/><text class="cls-2" transform="translate(105.99 105.99)">Ca y est ! J<tspan class="cls-3" x="161.6" y="0">’</tspan><tspan x="166.81" y="0">ai sauté sur </tspan><tspan class="cls-4" x="347.37" y="0">t</tspan><tspan x="357.96" y="0">out </tspan><tspan x="14.19" y="40.8">un tas de fleurs. Le pollen </tspan><tspan class="cls-5" x="26.64" y="81.6">c</tspan><tspan class="cls-6" x="43.97" y="81.6">’</tspan><tspan x="49.03" y="81.6">est bien mélangé, et la </tspan><tspan x="0.85" y="122.4">pollinisation suit son cours.</tspan></text></g></g></svg>